<mxfile scale="10" border="0"><diagram id="U5lu_Pno9iwjzaqwwoQx" name="ページ1"><mxGraphModel dx="1702" dy="547" grid="1" gridSize="10" guides="1" tooltips="1" connect="1" arrows="1" fold="1" page="1" pageScale="1" pageWidth="1169" pageHeight="827" math="0" shadow="0"><root><mxCell id="0"/><mxCell id="1" parent="0"/><mxCell id="2" value="ブロック n" style="whiteSpace=wrap;html=1;strokeWidth=3;strokeColor=#3399FF;fillColor=#B3B3B3;" parent="1" vertex="1"><mxGeometry x="80" y="250" width="100" height="70" as="geometry"/></mxCell><mxCell id="3" value="ブロック (n+1)'&lt;br&gt;&lt;b&gt;&lt;font style=&quot;font-size: 16px;&quot; color=&quot;#ff0000&quot;&gt;4&lt;/font&gt;&lt;/b&gt;" style="whiteSpace=wrap;html=1;strokeWidth=3;strokeColor=#3399FF;" parent="1" vertex="1"><mxGeometry x="230" y="295" width="100" height="70" as="geometry"/></mxCell><mxCell id="4" value="ブロック n+1&lt;br&gt;&lt;b&gt;&lt;font style=&quot;font-size: 16px;&quot; color=&quot;#ff0000&quot;&gt;3&lt;/font&gt;&lt;/b&gt;" style="whiteSpace=wrap;html=1;strokeWidth=3;strokeColor=#3399FF;" parent="1" vertex="1"><mxGeometry x="230" y="205" width="100" height="70" as="geometry"/></mxCell><mxCell id="5" value="ブロック n+2&lt;br&gt;" style="whiteSpace=wrap;html=1;strokeWidth=3;strokeColor=#3399FF;" parent="1" vertex="1"><mxGeometry x="366" y="205" width="100" height="70" as="geometry"/></mxCell><mxCell id="6" value="" style="endArrow=blockThin;html=1;endFill=1;strokeWidth=4;strokeColor=#3399FF;exitX=1;exitY=0.5;exitDx=0;exitDy=0;entryX=0;entryY=0.5;entryDx=0;entryDy=0;" parent="1" source="2" target="4" edge="1"><mxGeometry width="50" height="50" relative="1" as="geometry"><mxPoint x="250" y="310" as="sourcePoint"/><mxPoint x="300" y="260" as="targetPoint"/></mxGeometry></mxCell><mxCell id="7" value="" style="endArrow=blockThin;html=1;endFill=1;strokeWidth=4;strokeColor=#3399FF;exitX=1;exitY=0.5;exitDx=0;exitDy=0;entryX=0;entryY=0.5;entryDx=0;entryDy=0;" parent="1" source="2" target="3" edge="1"><mxGeometry width="50" height="50" relative="1" as="geometry"><mxPoint x="190" y="295" as="sourcePoint"/><mxPoint x="240" y="250" as="targetPoint"/></mxGeometry></mxCell><mxCell id="8" value="" style="endArrow=blockThin;html=1;endFill=1;strokeWidth=4;strokeColor=#3399FF;exitX=1;exitY=0.5;exitDx=0;exitDy=0;" parent="1" source="4" target="5" edge="1"><mxGeometry width="50" height="50" relative="1" as="geometry"><mxPoint x="385" y="295" as="sourcePoint"/><mxPoint x="435" y="340" as="targetPoint"/></mxGeometry></mxCell><mxCell id="9" value="" style="endArrow=blockThin;html=1;endFill=1;strokeWidth=4;strokeColor=#3399FF;entryX=0;entryY=0.5;entryDx=0;entryDy=0;" parent="1" target="2" edge="1"><mxGeometry width="50" height="50" relative="1" as="geometry"><mxPoint x="40" y="285" as="sourcePoint"/><mxPoint x="78" y="250" as="targetPoint"/></mxGeometry></mxCell><mxCell id="10" value="" style="endArrow=none;dashed=1;html=1;strokeColor=#3399FF;strokeWidth=4;" parent="1" edge="1"><mxGeometry width="50" height="50" relative="1" as="geometry"><mxPoint x="-3" y="285" as="sourcePoint"/><mxPoint x="47" y="285" as="targetPoint"/></mxGeometry></mxCell><mxCell id="12" value="ブロック n+3&lt;br&gt;" style="whiteSpace=wrap;html=1;strokeWidth=3;strokeColor=#3399FF;" parent="1" vertex="1"><mxGeometry x="502" y="205" width="100" height="70" as="geometry"/></mxCell><mxCell id="13" value="" style="endArrow=blockThin;html=1;endFill=1;strokeWidth=4;strokeColor=#3399FF;exitX=1;exitY=0.5;exitDx=0;exitDy=0;" parent="1" target="12" edge="1"><mxGeometry width="50" height="50" relative="1" as="geometry"><mxPoint x="466" y="240" as="sourcePoint"/><mxPoint x="571" y="340" as="targetPoint"/></mxGeometry></mxCell><mxCell id="23" value="ブロック (n+2)'&lt;br&gt;" style="whiteSpace=wrap;html=1;strokeWidth=3;strokeColor=#3399FF;" parent="1" vertex="1"><mxGeometry x="366" y="295" width="100" height="70" as="geometry"/></mxCell><mxCell id="24" value="" style="endArrow=blockThin;html=1;endFill=1;strokeWidth=4;strokeColor=#3399FF;exitX=1;exitY=0.5;exitDx=0;exitDy=0;" parent="1" target="23" edge="1"><mxGeometry width="50" height="50" relative="1" as="geometry"><mxPoint x="330" y="330" as="sourcePoint"/><mxPoint x="435" y="430" as="targetPoint"/></mxGeometry></mxCell><mxCell id="25" value="ブロック (n+3)'&lt;br&gt;" style="whiteSpace=wrap;html=1;strokeWidth=3;strokeColor=#3399FF;" parent="1" vertex="1"><mxGeometry x="502" y="295" width="100" height="70" as="geometry"/></mxCell><mxCell id="26" value="" style="endArrow=blockThin;html=1;endFill=1;strokeWidth=4;strokeColor=#3399FF;exitX=1;exitY=0.5;exitDx=0;exitDy=0;" parent="1" target="25" edge="1"><mxGeometry width="50" height="50" relative="1" as="geometry"><mxPoint x="466" y="330" as="sourcePoint"/><mxPoint x="571" y="430" as="targetPoint"/></mxGeometry></mxCell><mxCell id="27" value="ブロック (n+2)''&lt;br&gt;" style="whiteSpace=wrap;html=1;strokeWidth=3;strokeColor=#3399FF;" parent="1" vertex="1"><mxGeometry x="366" y="388" width="100" height="70" as="geometry"/></mxCell><mxCell id="28" value="ブロック (n+2)'''&lt;br&gt;" style="whiteSpace=wrap;html=1;strokeWidth=3;strokeColor=#3399FF;" parent="1" vertex="1"><mxGeometry x="366" y="478" width="100" height="70" as="geometry"/></mxCell><mxCell id="29" value="" style="endArrow=blockThin;html=1;endFill=1;strokeWidth=4;strokeColor=#3399FF;entryX=0;entryY=0.5;entryDx=0;entryDy=0;" parent="1" target="27" edge="1"><mxGeometry width="50" height="50" relative="1" as="geometry"><mxPoint x="330" y="330" as="sourcePoint"/><mxPoint x="376" y="340" as="targetPoint"/></mxGeometry></mxCell><mxCell id="30" value="" style="endArrow=blockThin;html=1;endFill=1;strokeWidth=4;strokeColor=#3399FF;entryX=0;entryY=0.671;entryDx=0;entryDy=0;exitX=1;exitY=0.5;exitDx=0;exitDy=0;entryPerimeter=0;" parent="1" source="3" target="28" edge="1"><mxGeometry width="50" height="50" relative="1" as="geometry"><mxPoint x="320" y="440" as="sourcePoint"/><mxPoint x="356" y="533" as="targetPoint"/></mxGeometry></mxCell><mxCell id="31" value="ブロック n+4" style="whiteSpace=wrap;html=1;strokeWidth=3;strokeColor=#3399FF;" parent="1" vertex="1"><mxGeometry x="638" y="205" width="100" height="70" as="geometry"/></mxCell><mxCell id="32" value="" style="endArrow=blockThin;html=1;endFill=1;strokeWidth=4;strokeColor=#3399FF;exitX=1;exitY=0.5;exitDx=0;exitDy=0;" parent="1" target="31" edge="1"><mxGeometry width="50" height="50" relative="1" as="geometry"><mxPoint x="602" y="240" as="sourcePoint"/><mxPoint x="707" y="340" as="targetPoint"/></mxGeometry></mxCell><mxCell id="35" value="" style="rounded=1;whiteSpace=wrap;html=1;fontSize=16;fontColor=#FF0000;strokeColor=#FF0000;fillColor=none;strokeWidth=2;" parent="1" vertex="1"><mxGeometry x="372" y="295" width="230" height="250" as="geometry"/></mxCell><mxCell id="37" value="" style="rounded=1;whiteSpace=wrap;html=1;fontSize=16;fontColor=#FF0000;strokeColor=#FF0000;fillColor=none;strokeWidth=2;" parent="1" vertex="1"><mxGeometry x="366" y="210" width="370" height="60" as="geometry"/></mxCell></root></mxGraphModel></diagram></mxfile>